<svg width="19" height="19" viewBox="0 0 19 19" fill="none" xmlns="http://www.w3.org/2000/svg">
<path d="M16.1711 7.2763H11.5658V2.67104C11.5658 2.06034 11.3232 1.47466 10.8914 1.04283C10.4595 0.611006 9.87387 0.368408 9.26317 0.368408C8.65247 0.368408 8.06679 0.611006 7.63496 1.04283C7.20314 1.47466 6.96054 2.06034 6.96054 2.67104L7.04228 7.2763H2.35527C1.74458 7.2763 1.1589 7.5189 0.727068 7.95073C0.295241 8.38256 0.0526428 8.96824 0.0526428 9.57893C0.0526428 10.1896 0.295241 10.7753 0.727068 11.2071C1.1589 11.639 1.74458 11.8816 2.35527 11.8816L7.04228 11.7998L6.96054 16.4868C6.96054 17.0975 7.20314 17.6832 7.63496 18.115C8.06679 18.5469 8.65247 18.7895 9.26317 18.7895C9.87387 18.7895 10.4595 18.5469 10.8914 18.115C11.3232 17.6832 11.5658 17.0975 11.5658 16.4868V11.7998L16.1711 11.8816C16.7818 11.8816 17.3674 11.639 17.7993 11.2071C18.2311 10.7753 18.4737 10.1896 18.4737 9.57893C18.4737 8.96824 18.2311 8.38256 17.7993 7.95073C17.3674 7.5189 16.7818 7.2763 16.1711 7.2763Z" fill="#F8F8F8"/>
</svg>
