<svg width="24" height="24" viewBox="0 0 24 24" fill="none" xmlns="http://www.w3.org/2000/svg">
<path d="M12 22C10.75 22 9.579 21.7623 8.487 21.287C7.395 20.8117 6.445 20.1703 5.637 19.363C4.829 18.5543 4.18767 17.6043 3.713 16.513C3.23833 15.4217 3.00067 14.2507 3 13C3 12.7167 3.096 12.479 3.288 12.287C3.48 12.095 3.71733 11.9993 4 12C4.28333 12 4.521 12.096 4.713 12.288C4.905 12.48 5.00067 12.7173 5 13C5 14.95 5.67933 16.6043 7.038 17.963C8.39667 19.3217 10.0507 20.0007 12 20C13.95 20 15.6043 19.3207 16.963 17.962C18.3217 16.6033 19.0007 14.9493 19 13C19 11.05 18.3207 9.39565 16.962 8.03698C15.6033 6.67832 13.9493 5.99932 12 5.99998H11.85L12.7 6.84998C12.9 7.04998 12.996 7.28332 12.988 7.54998C12.98 7.81665 12.884 8.04998 12.7 8.24998C12.5 8.44998 12.2627 8.55432 11.988 8.56298C11.7133 8.57165 11.4757 8.47565 11.275 8.27498L8.7 5.69998C8.5 5.49998 8.4 5.26665 8.4 4.99998C8.4 4.73332 8.5 4.49999 8.7 4.29999L11.275 1.72498C11.475 1.52498 11.7127 1.42898 11.988 1.43698C12.2633 1.44498 12.5007 1.54932 12.7 1.74998C12.8833 1.94998 12.9793 2.18332 12.988 2.44999C12.9967 2.71665 12.9007 2.94999 12.7 3.14999L11.85 3.99998H12C13.25 3.99998 14.421 4.23765 15.513 4.71298C16.605 5.18832 17.555 5.82998 18.363 6.63798C19.171 7.44598 19.8127 8.39598 20.288 9.48798C20.7633 10.58 21.0007 11.7507 21 13C21 14.25 20.7623 15.421 20.287 16.513C19.8117 17.605 19.1703 18.555 18.363 19.363C17.5543 20.171 16.6043 20.8127 15.513 21.288C14.4217 21.7633 13.2507 22.0007 12 22Z" fill="white"/>
</svg>
