<svg width="21" height="21" viewBox="0 0 21 21" fill="none" xmlns="http://www.w3.org/2000/svg">
<path d="M10.5 0.916748C11.7585 0.916748 13.0046 1.16463 14.1673 1.64624C15.33 2.12784 16.3865 2.83375 17.2764 3.72364C18.1663 4.61354 18.8722 5.66999 19.3538 6.8327C19.8354 7.9954 20.0833 9.24158 20.0833 10.5001C20.0833 13.0417 19.0736 15.4793 17.2764 17.2765C15.4792 19.0737 13.0416 20.0834 10.5 20.0834C9.24146 20.0834 7.99528 19.8355 6.83258 19.3539C5.66987 18.8723 4.61341 18.1664 3.72352 17.2765C1.9263 15.4793 0.916626 13.0417 0.916626 10.5001C0.916626 7.95842 1.9263 5.52087 3.72352 3.72364C5.52074 1.92642 7.9583 0.916748 10.5 0.916748ZM5.70829 8.58342L10.5 13.3751L15.2916 8.58342H5.70829Z" fill="#545F71"/>
</svg>
