<svg width="16" height="16" viewBox="0 0 16 16" fill="none" xmlns="http://www.w3.org/2000/svg">
<path d="M4.66671 2.66659C4.66671 2.31296 4.80718 1.97382 5.05723 1.72378C5.30728 1.47373 5.64642 1.33325 6.00004 1.33325H10C10.3537 1.33325 10.6928 1.47373 10.9428 1.72378C11.1929 1.97382 11.3334 2.31296 11.3334 2.66659V3.99992H14C14.1769 3.99992 14.3464 4.07016 14.4714 4.19518C14.5965 4.3202 14.6667 4.48977 14.6667 4.66658C14.6667 4.8434 14.5965 5.01297 14.4714 5.13799C14.3464 5.26301 14.1769 5.33325 14 5.33325H13.2874L12.7094 13.4279C12.6854 13.7643 12.5349 14.0791 12.2881 14.309C12.0413 14.5388 11.7166 14.6666 11.3794 14.6666H4.62004C4.2828 14.6666 3.95809 14.5388 3.7113 14.309C3.46451 14.0791 3.31398 13.7643 3.29004 13.4279L2.71337 5.33325H2.00004C1.82323 5.33325 1.65366 5.26301 1.52864 5.13799C1.40361 5.01297 1.33337 4.8434 1.33337 4.66658C1.33337 4.48977 1.40361 4.3202 1.52864 4.19518C1.65366 4.07016 1.82323 3.99992 2.00004 3.99992H4.66671V2.66659ZM6.00004 3.99992H10V2.66659H6.00004V3.99992ZM4.04937 5.33325L4.62071 13.3333H11.38L11.9514 5.33325H4.04937ZM6.66671 6.66658C6.84352 6.66658 7.01309 6.73682 7.13811 6.86185C7.26314 6.98687 7.33337 7.15644 7.33337 7.33325V11.3333C7.33337 11.5101 7.26314 11.6796 7.13811 11.8047C7.01309 11.9297 6.84352 11.9999 6.66671 11.9999C6.4899 11.9999 6.32033 11.9297 6.1953 11.8047C6.07028 11.6796 6.00004 11.5101 6.00004 11.3333V7.33325C6.00004 7.15644 6.07028 6.98687 6.1953 6.86185C6.32033 6.73682 6.4899 6.66658 6.66671 6.66658ZM9.33337 6.66658C9.51018 6.66658 9.67975 6.73682 9.80478 6.86185C9.9298 6.98687 10 7.15644 10 7.33325V11.3333C10 11.5101 9.9298 11.6796 9.80478 11.8047C9.67975 11.9297 9.51018 11.9999 9.33337 11.9999C9.15656 11.9999 8.98699 11.9297 8.86197 11.8047C8.73695 11.6796 8.66671 11.5101 8.66671 11.3333V7.33325C8.66671 7.15644 8.73695 6.98687 8.86197 6.86185C8.98699 6.73682 9.15656 6.66658 9.33337 6.66658Z" fill="#BFBFBF"/>
</svg>
