<svg width="18" height="18" viewBox="0 0 18 18" fill="none" xmlns="http://www.w3.org/2000/svg">
<path d="M7.7091 0V10.4095H10.2909V0H7.7091ZM2.63562 2.63562C1.00693 4.2643 0 6.51471 0 9C0 13.9706 4.02943 18 9 18C13.9706 18 18 13.9706 18 9C18 6.51471 16.993 4.2643 15.3644 2.63562L13.5516 4.44837C14.7165 5.61324 15.4369 7.22265 15.4369 9C15.4369 12.5547 12.5547 15.4369 9 15.4369C5.44528 15.4369 2.56311 12.5547 2.56311 9C2.56311 7.22265 3.28349 5.61324 4.44837 4.44837L2.63562 2.63562Z" fill="#D9D9D9"/>
</svg>
