<svg width="33" height="33" viewBox="0 0 33 33" fill="none" xmlns="http://www.w3.org/2000/svg">
<path d="M28.8172 21.072C29.0977 20.4037 28.2961 19.8345 27.6238 20.1315C26.2798 20.7214 24.8276 21.0248 23.3599 21.0225C17.6055 21.0225 12.9415 16.452 12.9415 10.8131C12.9394 8.90918 13.4803 7.04416 14.5007 5.43683C14.8912 4.82083 14.4224 3.96833 13.7074 4.14983C8.195 5.55646 4.125 10.468 4.125 16.3103C4.125 23.25 9.86563 28.8751 16.9482 28.8751C22.3108 28.8751 26.9032 25.6507 28.8172 21.072Z" fill="white"/>
<path d="M21.4651 4.26659C20.7363 3.77984 19.8673 4.64884 20.3527 5.37759L21.219 6.67696C21.5704 7.20381 21.7579 7.82292 21.7579 8.45621C21.7579 9.0895 21.5704 9.70861 21.219 10.2355L20.3527 11.5348C19.8673 12.2636 20.7377 13.1326 21.4665 12.6458L22.7645 11.7796C23.2913 11.4282 23.9104 11.2407 24.5437 11.2407C25.177 11.2407 25.7961 11.4282 26.323 11.7796L27.6223 12.6458C28.3511 13.1326 29.2201 12.2636 28.7333 11.5348L27.8671 10.2355C27.5157 9.70861 27.3281 9.0895 27.3281 8.45621C27.3281 7.82292 27.5157 7.20381 27.8671 6.67696L28.7333 5.37759C29.2201 4.64884 28.3511 3.77984 27.621 4.26659L26.323 5.13284C25.7961 5.48424 25.177 5.67177 24.5437 5.67177C23.9104 5.67177 23.2913 5.48424 22.7645 5.13284L21.4651 4.26659Z" fill="white"/>
</svg>
