<svg width="27" height="27" viewBox="0 0 27 27" fill="none" xmlns="http://www.w3.org/2000/svg">
<path fill-rule="evenodd" clip-rule="evenodd" d="M13.5 4.5C11.9259 4.49971 10.3792 4.9123 9.0143 5.69658C7.64945 6.48086 6.51416 7.60941 5.72177 8.96957C4.92937 10.3297 4.50758 11.8739 4.4985 13.4481C4.48942 15.0222 4.89336 16.5712 5.67 17.9404C6.19494 17.2581 6.86973 16.7058 7.64222 16.326C8.41471 15.9462 9.26419 15.7491 10.125 15.75H16.875C17.7358 15.7491 18.5853 15.9462 19.3578 16.326C20.1303 16.7058 20.8051 17.2581 21.33 17.9404C22.1066 16.5712 22.5106 15.0222 22.5015 13.4481C22.4924 11.8739 22.0706 10.3297 21.2782 8.96957C20.4858 7.60941 19.3506 6.48086 17.9857 5.69658C16.6208 4.9123 15.0741 4.49971 13.5 4.5ZM22.4359 20.3355C23.94 18.3746 24.7536 15.9714 24.75 13.5C24.75 7.28663 19.7134 2.25 13.5 2.25C7.28663 2.25 2.25 7.28663 2.25 13.5C2.24629 15.9714 3.05989 18.3746 4.56413 20.3355L4.5585 20.3557L4.95788 20.8204C6.013 22.0539 7.32306 23.0441 8.79776 23.7225C10.2725 24.4009 11.8767 24.7514 13.5 24.75C15.7807 24.7542 18.0083 24.0614 19.8844 22.7644C20.6842 22.2118 21.4094 21.5584 22.0421 20.8204L22.4415 20.3557L22.4359 20.3355ZM13.5 6.75C12.6049 6.75 11.7464 7.10558 11.1135 7.73851C10.4806 8.37145 10.125 9.22989 10.125 10.125C10.125 11.0201 10.4806 11.8786 11.1135 12.5115C11.7464 13.1444 12.6049 13.5 13.5 13.5C14.3951 13.5 15.2536 13.1444 15.8865 12.5115C16.5194 11.8786 16.875 11.0201 16.875 10.125C16.875 9.22989 16.5194 8.37145 15.8865 7.73851C15.2536 7.10558 14.3951 6.75 13.5 6.75Z" fill="#76AAFF"/>
</svg>
