<svg width="32" height="28" viewBox="0 0 32 28" fill="none" xmlns="http://www.w3.org/2000/svg">
<path d="M4.07753 27.2501H27.9225C30.3609 27.2501 31.8809 24.6059 30.6617 22.5001L18.7392 1.90091C17.52 -0.204925 14.48 -0.204925 13.2609 1.90091L1.33836 22.5001C0.119196 24.6059 1.6392 27.2501 4.07753 27.2501ZM16 16.1667C15.1292 16.1667 14.4167 15.4542 14.4167 14.5834V11.4167C14.4167 10.5459 15.1292 9.83341 16 9.83341C16.8709 9.83341 17.5834 10.5459 17.5834 11.4167V14.5834C17.5834 15.4542 16.8709 16.1667 16 16.1667ZM17.5834 22.5001H14.4167V19.3334H17.5834V22.5001Z" fill="#FF5A5A"/>
</svg>
